<svg width="1440" height="1024" viewBox="0 0 1440 1024" fill="none" xmlns="http://www.w3.org/2000/svg">
<g clip-path="url(#clip0)">
<rect width="1440" height="1024" fill="url(#paint0_linear)"/>
<path d="M411 814.5C147 910.9 13 874.667 -21 844.5L-180 1213L231 1287L1563.5 1253.5L1548 532C1562.33 510.333 1512.1 468.3 1196.5 473.5C802 480 741 694 411 814.5Z" fill="#919191"/>
<path fill-rule="evenodd" clip-rule="evenodd" d="M1226.52 634.232C1269.53 645.95 1317.7 611.912 1358.65 629.368C1399.6 646.827 1416.91 693.7 1445.35 727.52C1474.26 761.889 1502.35 794.87 1528.49 831.313C1566.1 883.727 1649.86 928.273 1634.03 990.494C1618.02 1053.42 1519.66 1050.46 1463.9 1085.15C1425.66 1108.95 1399.34 1150.49 1356.04 1163.45C1314.15 1175.99 1270.23 1158.91 1226.52 1156.21C1185.35 1153.66 1145.74 1150.97 1104.6 1147.92C1044.58 1143.47 978.595 1164.2 926.841 1133.98C875.452 1103.97 824.003 1046.3 830.568 987.9C837.947 922.259 942.3 902.977 959.972 839.263C976.523 779.591 902.65 718.981 921.523 659.979C939.306 604.385 994.619 551.272 1053.69 546.286C1119.14 540.76 1163.21 616.984 1226.52 634.232Z" fill="#C4C4C4"/>
<path fill-rule="evenodd" clip-rule="evenodd" d="M186.365 110.871C234.592 121.872 266.115 166.568 303.274 199.218C333.026 225.36 356.801 255.57 383.908 284.447C413.191 315.641 454.344 337.48 470.323 377.17C486.769 418.018 489.798 466.571 473.739 507.573C457.907 547.998 407.529 563.02 383.4 599.112C356.519 639.321 363.57 700.719 325.056 729.977C287.435 758.558 232.866 757.158 186.365 748.797C142.063 740.831 111.453 701.087 69.7784 684.076C24.9787 665.79 -30.5923 675.475 -68.1149 644.923C-106.422 613.732 -134.781 565.123 -136.925 515.771C-139.067 466.463 -94.7563 428.243 -79.5688 381.284C-65.846 338.853 -71.5023 292.098 -51.6676 252.157C-29.7808 208.084 -1.71466 164.416 40.6011 139.3C83.7109 113.712 137.489 99.7221 186.365 110.871Z" fill="#7C7C7C"/>
<path fill-rule="evenodd" clip-rule="evenodd" d="M1290.31 764.389C1332.85 751.753 1352.85 829.037 1393.63 846.542C1432.64 863.287 1481.85 841.762 1518.89 862.507C1555.66 883.103 1579.6 922.141 1597.07 960.494C1614.39 998.511 1629.04 1042.16 1619.22 1082.76C1609.12 1124.5 1557 1144.56 1542.72 1185.06C1529.54 1222.44 1563.85 1270.19 1541.56 1302.97C1519.69 1335.11 1465.3 1322.22 1433.87 1345.09C1399.48 1370.11 1393.9 1436.69 1351.62 1441.18C1307.37 1445.87 1286.99 1373.15 1243.19 1365.31C1198.93 1357.38 1149.62 1425.55 1113.64 1398.58C1075.49 1369.97 1114.14 1302.79 1099.34 1257.46C1089.66 1227.82 1050.12 1213.94 1043.39 1183.5C1036.63 1152.84 1060.52 1123.47 1062.83 1092.16C1065.19 1060.25 1057.53 1029.15 1057.17 997.147C1056.64 951.294 1021.41 885.288 1060.17 860.784C1103.84 833.177 1160.67 921.545 1208.32 901.587C1257.88 880.827 1238.8 779.689 1290.31 764.389Z" fill="#89B0AE"/>
<path fill-rule="evenodd" clip-rule="evenodd" d="M450.629 782.704C513.499 781.411 579.294 733.87 634.507 763.966C689.48 793.932 705.853 866.685 717.536 928.195C727.606 981.219 704.098 1032.01 695.537 1085.3C687.15 1137.51 704.606 1200.31 667.731 1238.21C630.773 1276.19 564.417 1250.48 515.344 1270.49C457.715 1293.99 420.433 1368.69 358.347 1364.37C297.405 1360.14 249.793 1303.27 219.967 1249.96C192.538 1200.93 200.783 1141.92 202.478 1085.77C203.909 1038.35 218.874 995.228 229.054 948.897C242.378 888.258 221.879 808.683 271.546 771.43C320.384 734.799 389.593 783.959 450.629 782.704Z" fill="#A3A380"/>
<path fill-rule="evenodd" clip-rule="evenodd" d="M677.031 -42.5825C746.551 -46.3073 815.848 -24.9097 873.76 13.7323C931.094 51.9892 971.621 109.545 999.495 172.584C1027.13 235.079 1042.96 303.445 1031.66 370.836C1020.5 437.384 980.802 493.785 937.022 545.131C892.952 596.817 843.647 646.284 779.008 667.15C713.49 688.3 642.466 681.905 576.731 661.438C511.705 641.192 453.514 603.641 409.128 551.987C364.863 500.471 336.505 437.427 326.517 370.244C316.497 302.849 322.288 232.708 352.587 171.68C382.371 111.69 437.511 71.0198 493.399 34.1113C549.897 -3.19974 609.422 -38.9602 677.031 -42.5825Z" fill="#89B0AE"/>
</g>
<defs>
<linearGradient id="paint0_linear" x1="720" y1="0" x2="558" y2="1340" gradientUnits="userSpaceOnUse">
<stop stop-color="#BEE3DB"/>
<stop offset="1" stop-color="#BEE3DB" stop-opacity="0.58"/>
</linearGradient>
<clipPath id="clip0">
<rect width="1440" height="1024" fill="white"/>
</clipPath>
</defs>
</svg>
